Coordinates
version=1
nRows=30
nColumns=23
inDegrees=yes

Units are S.I. units (second, meters, Newtons, ...)
If the header above contains a line with 'inDegrees', this indicates whether rotational values are in degrees (yes) or radians (no).

endheader
time	pelvis_tilt	pelvis_list	pelvis_rotation	pelvis_tx	pelvis_ty	pelvis_tz	hip_flexion_r	hip_adduction_r	hip_rotation_r	knee_angle_r	knee_angle_r_beta	ankle_angle_r	subtalar_angle_r	mtp_angle_r	hip_flexion_l	hip_adduction_l	hip_rotation_l	knee_angle_l	knee_angle_l_beta	ankle_angle_l	subtalar_angle_l	mtp_angle_l
     22.50000000	    -11.77338104	      8.08650264	      7.66378490	      2.31926250	      0.98669535	      0.99599694	     41.79401007	    -11.88123144	      5.54855895	    130.58918455	      2.27921124	      3.20314001	    -13.90367329	      0.00000000	     22.99344236	     14.03112324	      2.86413647	     44.82616028	      0.78236409	     26.84416694	     -7.63854335	      0.00000000
     22.50666667	    -11.64010478	      7.60692198	      6.46035190	      2.32070303	      0.98974436	      0.99764390	     44.20216229	    -10.26647600	      6.31866788	    129.38829315	      2.25825173	      3.78357449	    -13.23485211	      0.00000000	     20.30107395	     12.71192727	      1.96176495	     43.38102888	      0.75714179	     26.99762508	     -6.00453733	      0.00000000
     22.51333333	    -11.80380810	      7.06171166	      5.33383103	      2.32234198	      0.99305069	      0.99912376	     46.70768776	     -8.62083561	      6.81976908	    127.86876304	      2.23173093	      4.32212829	    -12.74043605	      0.00000000	     17.82939618	     11.61777163	      1.46957297	     41.65758119	      0.72706195	     26.22988820	     -5.76201497	      0.00000000
     22.52000000	    -11.66464708	      6.40647583	      4.15000557	      2.32459057	      0.99738275	      1.00081616	     48.56447951	     -6.81298364	      6.97931961	    125.96975697	      2.19858702	      4.82325941	    -12.56616453	      0.00000000	     14.95715898	     10.33029477	      0.61610127	     39.70730978	      0.69302329	     24.90887123	     -5.08655427	      0.00000000
     22.52666667	     -9.80371736	      4.55783687	      3.36939298	      2.32873313	      1.00562471	      1.00220224	     47.69198219	     -4.38902793	      5.36669341	    123.15715486	      2.14949785	      5.18818615	    -13.20379604	      0.00000000	     10.09913471	      7.61729239	     -0.28761832	     37.51220332	      0.65471146	     23.32673447	     -3.25501799	      0.00000000
     22.53333333	    -10.50017104	      4.01566010	      2.56355275	      2.33132287	      1.00953231	      1.00332357	     50.01528628	     -3.06710387	      5.25636990	    120.86896791	      2.10956145	      5.78745845	    -13.14429901	      0.00000000	      8.18498998	      6.72500866	     -1.24836772	     35.49643499	      0.61952966	     20.48001988	     -2.87362210	      0.00000000
     22.54000000	     -8.57906459	      2.18642234	      1.86383429	      2.33598098	      1.01860048	      1.00451810	     48.68232874	     -0.85117334	      3.58830998	    117.61255057	      2.05272625	      6.11065315	    -14.06290131	      0.00000000	      3.17920004	      4.38401883	     -2.05653661	     32.80886635	      0.57262274	     17.00182608	     -2.82554092	      0.00000000
     22.54666667	     -9.43678493	      1.76327525	      1.24215317	      2.33906081	      1.02272064	      1.00543591	     50.75841170	      0.07793703	      3.28563898	    114.96379750	      2.00649679	      6.68701883	    -14.31721566	      0.00000000	      1.60308325	      3.68612811	     -3.36144285	     30.87312333	      0.53883765	     13.05046245	     -2.31059326	      0.00000000
     22.55333333	     -7.59807665	     -0.00085803	      0.88736332	      2.34402688	      1.03200217	      1.00609290	     49.13083805	      1.89582994	      1.59332512	    111.34207876	      1.94328587	      6.95600463	    -15.53281968	      0.00000000	     -3.19441959	      1.71113745	     -3.91201718	     28.11079646	      0.49062595	      8.33788899	     -3.17915449	      0.00000000
     22.56000000	     -8.38727094	     -0.20701640	      0.39060620	      2.34734281	      1.03633956	      1.00691499	     50.76853877	      2.46325148	      1.33287824	    108.39383660	      1.89182934	      7.39361243	    -16.11254179	      0.00000000	     -4.57725563	      1.29618364	     -5.41028033	     26.43624634	      0.46139954	      3.82683232	     -2.83625254	      0.00000000
     22.56666667	     -7.22174014	     -1.53453951	      0.34064056	      2.35201511	      1.04440453	      1.00705067	     49.66706004	      3.56182752	     -0.10929946	    104.64763310	      1.82644575	      7.65560049	    -17.39560668	      0.00000000	     -8.25620032	     -0.04088114	     -5.61508432	     24.17703288	      0.42196883	     -1.21775795	     -3.99763720	      0.00000000
     22.57333333	     -8.13786545	     -1.40499882	      0.03200572	      2.35522827	      1.04832734	      1.00750463	     51.14574343	      3.58596610	     -0.26285303	    101.48384256	      1.77122719	      8.11417769	    -18.02615809	      0.00000000	     -9.04241759	     -0.07475729	     -6.99665275	     23.20226895	      0.40495599	     -5.47096364	     -3.66583353	      0.00000000
     22.58000000	     -7.68737630	     -2.04255937	     -0.03826982	      2.35920685	      1.05467365	      1.00767162	     50.71544842	      4.06037276	     -1.13379514	     97.73325424	      1.70576708	      8.37745613	    -19.25124586	      0.00000000	    -11.42167782	     -0.67514308	     -7.23510991	     21.85378657	      0.38142053	     -9.78062266	     -4.76589160	      0.00000000
     22.58666667	     -8.63058119	     -1.64567846	     -0.23378764	      2.36210140	      1.05806834	      1.00791578	     51.96368116	      3.71289486	     -1.18387464	     94.33471679	      1.64645141	      8.85346634	    -19.78241830	      0.00000000	    -11.68768208	     -0.41160848	     -8.21282714	     21.77012901	      0.37996043	    -12.88764314	     -4.60524632	      0.00000000
     22.59333333	     -9.46856225	     -1.10499910	     -0.38506974	      2.36471012	      1.06121173	      1.00812640	     52.98789395	      3.21109086	     -1.17338183	     90.81774776	      1.58506872	      9.42585570	    -20.19467669	      0.00000000	    -11.83945908	      0.03037716	     -8.84574065	     22.14140151	      0.38644036	    -15.19815149	     -4.53744308	      0.00000000
     22.60000000	    -10.21183734	     -0.52838248	     -0.67844512	      2.36702224	      1.06407555	      1.00842332	     53.80021420	      2.81634124	     -1.02599851	     87.12497828	      1.52061773	      9.78507875	    -20.49098844	      0.00000000	    -11.94749471	      0.56368493	     -9.40800106	     22.84224144	      0.39867232	    -16.88844471	     -4.79843881	      0.00000000
     22.60666667	    -11.00548022	     -0.10843383	     -1.07951740	      2.36919926	      1.06656853	      1.00884185	     54.49861287	      2.61505850	     -0.98795699	     83.16483522	      1.45150020	      9.88204798	    -20.94870390	      0.00000000	    -11.88673077	      0.95992051	     -9.97007584	     23.84766227	      0.41622023	    -17.95928787	     -5.57448365	      0.00000000
     22.61333333	    -11.67258131	      0.43002019	     -1.38782418	      2.37083218	      1.06872342	      1.00919917	     54.95566813	      2.32385097	     -0.84724356	     79.04871009	      1.37966026	     10.04055831	    -21.03316157	      0.00000000	    -11.68215216	      1.49630661	    -10.08015404	     25.43107750	      0.44385603	    -17.98845832	     -6.00582986	      0.00000000
     22.62000000	    -12.36690324	      0.96957475	     -1.72285913	      2.37217508	      1.07034687	      1.00951602	     55.31393952	      2.01396592	     -0.77331479	     74.75429536	      1.30470858	     10.29914131	    -20.59523052	      0.00000000	    -11.28230446	      2.00750492	    -10.24906418	     27.39975803	      0.47821599	    -17.44673755	     -6.18292593	      0.00000000
     22.62666667	    -12.93885242	      1.35920856	     -2.07585644	      2.37327770	      1.07174742	      1.00986641	     55.36275582	      1.83075436	     -0.84086100	     70.20756429	      1.22535316	     10.60013139	    -19.66531297	      0.00000000	    -10.85244153	      2.26713035	    -10.69153920	     29.76284767	      0.51945969	    -16.27998248	     -5.68847088	      0.00000000
     22.63333333	    -13.32228794	      1.59999276	     -2.40913378	      2.37426068	      1.07314825	      1.01016685	     55.00498865	      1.71522968	     -1.10661878	     65.40677551	      1.14156359	     10.99752838	    -18.11677518	      0.00000000	    -10.54184518	      2.45233948	    -10.78388821	     32.27443640	      0.56329518	    -15.12505355	     -5.59219551	      0.00000000
     22.64000000	    -13.32484650	      1.51707749	     -2.68532284	      2.37529200	      1.07491196	      1.01038897	     53.97712574	      1.75962652	     -1.71589684	     60.29646615	      1.05237186	     11.44955457	    -16.02188066	      0.00000000	    -10.56713473	      2.29912093	    -10.81820892	     34.94412498	      0.60989004	    -13.97300978	     -5.56145683	      0.00000000
     22.64666667	    -13.15410128	      1.29877060	     -2.87629498	      2.37634236	      1.07662385	      1.01048295	     52.56350735	      1.81205409	     -2.58939274	     55.00623656	      0.96003994	     12.06645641	    -13.15729736	      0.00000000	    -10.69392003	      2.02667862	    -10.66718459	     37.76206159	      0.65907231	    -12.94891608	     -5.68908611	      0.00000000
     22.65333333	    -12.41652956	      0.62927999	     -2.94138894	      2.37771804	      1.07902740	      1.01044380	     50.23434242	      2.10968682	     -3.93002320	     49.41160805	      0.86239525	     12.69274769	     -9.74816934	      0.00000000	    -11.40695940	      1.28293306	    -10.45921481	     40.63736395	      0.70925580	    -12.17399008	     -5.97798994	      0.00000000
     22.66000000	    -11.30527388	     -0.31681639	     -2.81470901	      2.37930221	      1.08167147	      1.01022042	     47.27902721	      2.55620616	     -5.62574842	     43.65479222	      0.76191986	     13.34894927	     -5.86333957	      0.00000000	    -12.45765896	      0.23349609	    -10.11093629	     43.61168836	      0.76116755	    -11.67649242	     -6.44737595	      0.00000000
     22.66666667	     -9.55900564	     -1.75770173	     -2.53159190	      2.38122999	      1.08489792	      1.00998714	     43.34972784	      3.54294741	     -7.49030642	     37.58726596	      0.65602155	     13.74880082	     -2.09931016	      0.00000000	    -14.17852495	     -1.43871995	     -9.98227105	     46.64523724	      0.81411297	    -11.40010282	     -7.01082429	      0.00000000
     22.67333333	     -7.76466707	     -3.03948233	     -2.06618516	      2.38309480	      1.08740804	      1.00961875	     39.38268812	      4.50907928	     -9.20546224	     31.72922411	      0.55377943	     14.22414760	      1.90842480	      0.00000000	    -15.83029050	     -2.97180295	     -9.64219913	     49.80306510	      0.86922746	    -11.32677207	     -7.89016055	      0.00000000
     22.68000000	     -5.97790419	     -4.15197967	     -1.54425814	      2.38477122	      1.08906911	      1.00933579	     35.46822592	      5.61315899	    -10.27155999	     26.11614455	      0.45581271	     14.48921842	      5.23906798	      0.00000000	    -17.35672480	     -4.36648595	     -9.26578295	     53.09364305	      0.92665888	    -11.48772897	     -9.20802494	      0.00000000
     22.68666667	     -4.33125471	     -5.07389735	     -1.03355350	      2.38616071	      1.08973496	      1.00913253	     31.77315686	      6.80589026	    -10.41015210	     20.83494161	      0.36363833	     14.48418806	      7.36065288	      0.00000000	    -18.60011749	     -5.58812868	     -8.88565283	     56.55375509	      0.98704923	    -11.68205307	    -10.74299814	      0.00000000
     22.69333333	     -2.89297837	     -5.72875601	     -0.57498502	      2.38724025	      1.08933283	      1.00893632	     28.43099542	      7.86556474	     -9.75017934	     16.10965089	      0.28116645	     14.26412594	      8.37949234	      0.00000000	    -19.48942824	     -6.50938519	     -8.44145435	     60.15701782	      1.04993803	    -11.98985596	    -12.63585866	      0.00000000
